<svg width="16" height="13" xmlns="http://www.w3.org/2000/svg" xmlns:xlink="http://www.w3.org/1999/xlink" xmlns:svgjs="http://svgjs.com/svgjs" viewBox="0 0.003 16 12.995" fill="#fff"><svg xmlns="http://www.w3.org/2000/svg" width="16" height="13" viewBox="1.393 1.574 14.068 11.426"><path paint-order="stroke fill markers" fill-rule="evenodd" d="M15.46 2.93a5.776 5.776 0 0 1-1.66.447 2.875 2.875 0 0 0 1.268-1.589 5.675 5.675 0 0 1-1.83.696 2.876 2.876 0 0 0-2.107-.91 2.882 2.882 0 0 0-2.883 2.883c0 .223.027.446.072.66A8.194 8.194 0 0 1 2.375 2.1a2.882 2.882 0 0 0 .893 3.857 2.9 2.9 0 0 1-1.304-.367v.036c0 1.402.99 2.562 2.312 2.83-.241.063-.5.099-.759.099-.187 0-.366-.019-.544-.045a2.888 2.888 0 0 0 2.695 2 5.775 5.775 0 0 1-3.579 1.23c-.241 0-.464-.008-.696-.034A8.15 8.15 0 0 0 5.82 13c5.302 0 8.204-4.392 8.204-8.203 0-.126 0-.25-.01-.376a6.202 6.202 0 0 0 1.447-1.49z"/></svg></svg>