<svg width="35" height="57" xmlns="http://www.w3.org/2000/svg" xmlns:xlink="http://www.w3.org/1999/xlink" xmlns:svgjs="http://svgjs.com/svgjs" viewBox="0.88 0 33.24 57" fill="#fff" opacity=".502"><svg xmlns="http://www.w3.org/2000/svg" width="35" height="57" viewBox="1.798 1.013 32.476 55.69"><path paint-order="stroke fill markers" fill-rule="evenodd" d="M1.798 28.858c0-.446.223-.949.558-1.283L28.36 1.57c.334-.335.837-.558 1.283-.558.446 0 .949.223 1.283.558l2.79 2.79c.335.335.559.837.559 1.284 0 .446-.224.948-.558 1.283l-21.93 21.93 21.93 21.93c.334.335.558.837.558 1.283 0 .503-.224.95-.558 1.284l-2.79 2.79c-.335.335-.838.558-1.284.558-.446 0-.949-.223-1.283-.558L2.356 30.142c-.335-.335-.558-.838-.558-1.284z"/></svg></svg>