<svg width="35" height="57" xmlns="http://www.w3.org/2000/svg" xmlns:xlink="http://www.w3.org/1999/xlink" xmlns:svgjs="http://svgjs.com/svgjs" viewBox="0.88 0 33.24 57" fill="#fff" opacity=".502"><svg xmlns="http://www.w3.org/2000/svg" width="35" height="57" viewBox="1.725 1.013 32.476 55.69"><path paint-order="stroke fill markers" fill-rule="evenodd" d="M34.202 28.858c0-.446-.223-.949-.558-1.283L7.64 1.57c-.334-.335-.837-.558-1.283-.558-.447 0-.949.223-1.284.558l-2.79 2.79c-.334.335-.558.837-.558 1.284 0 .446.224.948.558 1.283l21.93 21.93-21.93 21.93c-.334.335-.558.837-.558 1.283 0 .503.224.95.558 1.284l2.79 2.79c.335.335.837.558 1.284.558.446 0 .949-.223 1.283-.558l26.004-26.003c.335-.335.558-.838.558-1.284z"/></svg></svg>