<svg width="77" height="71" xmlns="http://www.w3.org/2000/svg" xmlns:xlink="http://www.w3.org/1999/xlink" xmlns:svgjs="http://svgjs.com/svgjs" viewBox="0 0.188 77 70.623" fill="#c8535a"><svg xmlns="http://www.w3.org/2000/svg" width="77" height="71" viewBox="1.747 1.687 75 68.789"><path paint-order="stroke fill markers" fill-rule="evenodd" d="M36.747 36.061c0 5.508-4.492 10-10 10s-10-4.492-10-10c0-5.507 4.492-10 10-10s10 4.493 10 10zm30 20c0 2.735-2.227 5-5 5-2.734 0-5-2.226-5-5 0-2.734 2.266-5 5-5s5 2.266 5 5zm0-40c0 2.735-2.227 5-5 5-2.734 0-5-2.226-5-5 0-2.734 2.266-5 5-5s5 2.266 5 5zm-15 16.446a1.21 1.21 0 0 0-.937-1.172l-5.938-.899c-.352-1.093-.82-2.148-1.328-3.203 1.094-1.523 2.265-2.93 3.398-4.453.157-.234.274-.468.274-.742 0-1.094-4.61-5.312-5.625-6.25a1.26 1.26 0 0 0-.82-.312c-.274 0-.547.078-.782.273l-4.61 3.477c-.937-.47-1.913-.899-2.929-1.211l-.898-5.977c-.078-.547-.625-.976-1.172-.976h-7.266c-.547 0-1.015.39-1.172.937-.507 1.914-.703 4.062-.898 6.016a20.363 20.363 0 0 0-3.008 1.25l-4.492-3.516c-.234-.156-.508-.273-.82-.273-1.133 0-5.508 4.726-6.29 5.781a1.193 1.193 0 0 0-.273.781c0 .274.117.547.274.781 1.25 1.485 2.421 2.93 3.515 4.493-.508.976-.937 1.953-1.25 2.968l-6.055.938c-.507.078-.898.664-.898 1.172v7.226c0 .547.39 1.055.938 1.133l5.937.938c.352 1.093.82 2.148 1.367 3.203-1.133 1.523-2.304 2.969-3.437 4.453-.157.234-.274.469-.274.742 0 1.133 4.61 5.312 5.625 6.25.235.195.508.312.82.312.274 0 .587-.078.782-.273l4.61-3.476c.937.468 1.913.898 2.929 1.21l.898 5.977c.078.547.625.977 1.172.977h7.266c.547 0 1.015-.391 1.172-.938.508-1.914.703-4.063.898-6.055a16.686 16.686 0 0 0 3.008-1.21l4.492 3.515c.235.156.508.273.82.273 1.133 0 5.508-4.765 6.29-5.82.195-.195.273-.469.273-.742 0-.313-.117-.547-.273-.781-1.25-1.485-2.422-2.93-3.516-4.492.508-.977.937-1.954 1.25-2.97l6.055-.937c.507-.078.898-.664.898-1.171v-7.227zm25 20.82c0-.586-5.04-1.133-5.82-1.21a10.541 10.541 0 0 0-1.172-2.032c.351-.781 1.992-4.688 1.992-5.39a.339.339 0 0 0-.156-.274c-.469-.274-4.649-2.734-4.844-2.734l-.234.078c-1.328 1.328-2.5 2.851-3.594 4.375-.39-.04-.781-.078-1.172-.078-.39 0-.781.039-1.172.078-.39-.586-3.32-4.453-3.828-4.453-.195 0-4.375 2.5-4.844 2.734a.338.338 0 0 0-.156.273c0 .664 1.64 4.61 1.992 5.391-.469.625-.86 1.328-1.172 2.031-.78.078-5.82.625-5.82 1.211v5.469c0 .586 5.04 1.133 5.82 1.21a9.491 9.491 0 0 0 1.172 2.032c-.351.782-1.992 4.727-1.992 5.39 0 .079.04.196.156.274.469.273 4.649 2.774 4.844 2.774.508 0 3.438-3.907 3.828-4.493.39.04.781.079 1.172.079.39 0 .781-.04 1.172-.079.39.586 3.32 4.493 3.828 4.493.195 0 4.375-2.5 4.844-2.774.117-.078.156-.156.156-.273 0-.704-1.64-4.61-1.992-5.39a9.491 9.491 0 0 0 1.172-2.032c.78-.078 5.82-.625 5.82-1.211v-5.469zm0-40c0-.586-5.04-1.133-5.82-1.21a10.541 10.541 0 0 0-1.172-2.032c.351-.781 1.992-4.688 1.992-5.39a.339.339 0 0 0-.156-.274c-.469-.274-4.649-2.734-4.844-2.734l-.234.078c-1.328 1.328-2.5 2.851-3.594 4.375-.39-.04-.781-.078-1.172-.078-.39 0-.781.039-1.172.078-.39-.586-3.32-4.453-3.828-4.453-.195 0-4.375 2.5-4.844 2.734a.339.339 0 0 0-.156.273c0 .664 1.64 4.61 1.992 5.391-.469.625-.86 1.328-1.172 2.031-.78.078-5.82.625-5.82 1.211v5.469c0 .586 5.04 1.133 5.82 1.211a9.489 9.489 0 0 0 1.172 2.031c-.351.781-1.992 4.727-1.992 5.39 0 .079.04.196.156.274.469.274 4.649 2.773 4.844 2.773.508 0 3.438-3.905 3.828-4.492.39.04.781.079 1.172.079.39 0 .781-.04 1.172-.079.39.587 3.32 4.492 3.828 4.492.195 0 4.375-2.5 4.844-2.773.117-.078.156-.156.156-.273 0-.703-1.64-4.61-1.992-5.39a9.489 9.489 0 0 0 1.172-2.032c.78-.078 5.82-.625 5.82-1.211v-5.469z"/></svg></svg>