<svg width="66" height="66" xmlns="http://www.w3.org/2000/svg" xmlns:xlink="http://www.w3.org/1999/xlink" xmlns:svgjs="http://svgjs.com/svgjs" fill="#c8535a"><svg xmlns="http://www.w3.org/2000/svg" width="66" height="66" viewBox="1.955 1.842 63.945 63.945"><path paint-order="stroke fill markers" fill-rule="evenodd" d="M47.385 24.537l-4.18-4.18L54.65 8.912l4.18 4.18-11.445 11.445zm17.46-11.445c0-.665-.234-1.29-.703-1.758l-7.734-7.735c-.469-.468-1.094-.703-1.758-.703-.664 0-1.289.235-1.758.703L2.658 53.834c-.469.469-.703 1.094-.703 1.758 0 .664.234 1.289.703 1.757l7.734 7.735c.47.469 1.094.703 1.758.703.664 0 1.29-.234 1.758-.703L64.142 14.85c.47-.47.703-1.094.703-1.758zM12.072 5.67L10.9 1.842 9.728 5.67 5.9 6.84l3.828 1.173 1.172 3.828 1.172-3.828L15.9 6.84 12.072 5.67zm13.672 6.328L23.4 4.342l-2.344 7.656-7.656 2.344 7.656 2.343 2.344 7.657 2.344-7.657 7.656-2.343-7.656-2.344zM62.072 30.67L60.9 26.842l-1.172 3.828-3.828 1.172 3.828 1.171 1.172 3.829 1.172-3.829 3.828-1.171-3.828-1.172zm-25-25L35.9 1.842 34.728 5.67 30.9 6.84l3.828 1.173 1.172 3.828 1.172-3.828L40.9 6.84 37.072 5.67z"/></svg></svg>