<svg width="47" height="70" xmlns="http://www.w3.org/2000/svg" xmlns:xlink="http://www.w3.org/1999/xlink" xmlns:svgjs="http://svgjs.com/svgjs" viewBox="0.167 0 46.667 70" fill="#df5c64"><svg xmlns="http://www.w3.org/2000/svg" width="47" height="70" viewBox="2 1.137 45.719 68.578"><path paint-order="stroke fill markers" fill-rule="evenodd" d="M34.86 21.138c0-4.955-5.848-7.143-10-7.143-.76 0-1.43.67-1.43 1.428 0 .76.67 1.43 1.43 1.43 2.366 0 7.143 1.205 7.143 4.285 0 .76.67 1.43 1.429 1.43s1.428-.67 1.428-1.43zm7.144 0c0 2.858-1.161 5.85-3.036 8.037-.848.982-1.83 1.92-2.724 2.947-3.17 3.795-5.848 8.26-6.295 13.305H19.77c-.446-5.046-3.125-9.51-6.295-13.305-.893-1.027-1.875-1.965-2.723-2.947-1.875-2.188-3.036-5.18-3.036-8.037 0-8.929 9.063-14.287 17.144-14.287 8.082 0 17.145 5.358 17.145 14.287zm5.715 0c0-12.143-11.564-20.001-22.86-20.001C13.564 1.137 2 8.995 2 21.138c0 4.6 1.518 8.573 4.599 11.966 3.08 3.393 7.143 8.17 7.5 12.948a4.291 4.291 0 0 0-2.098 3.66c0 1.072.402 2.099 1.116 2.858a4.172 4.172 0 0 0-1.116 2.857c0 1.474.759 2.813 2.01 3.617-.358.625-.581 1.384-.581 2.098 0 2.902 2.277 4.286 4.866 4.286 1.161 2.59 3.75 4.287 6.563 4.287 2.813 0 5.403-1.697 6.563-4.287 2.59 0 4.867-1.384 4.867-4.286 0-.714-.223-1.473-.58-2.098 1.25-.804 2.009-2.143 2.009-3.617a4.172 4.172 0 0 0-1.116-2.857 4.172 4.172 0 0 0 1.116-2.858 4.291 4.291 0 0 0-2.099-3.66c.358-4.778 4.42-9.555 7.501-12.948 3.08-3.393 4.599-7.367 4.599-11.966z"/></svg></svg>