<svg width="15" height="15" xmlns="http://www.w3.org/2000/svg" xmlns:xlink="http://www.w3.org/1999/xlink" xmlns:svgjs="http://svgjs.com/svgjs" viewBox="0 0.332 15 14.336" fill="#fff"><svg xmlns="http://www.w3.org/2000/svg" width="15" height="15" viewBox="2 1.61 13.711 13.104"><path paint-order="stroke fill markers" fill-rule="evenodd" d="M5.115 5.868H2.17v8.846h2.945V5.868zm.188-2.732c-.01-.865-.634-1.526-1.643-1.526-1 0-1.66.66-1.66 1.526 0 .848.634 1.527 1.625 1.527h.017c1.027 0 1.67-.679 1.66-1.527zM15.71 9.644c0-2.714-1.446-3.982-3.383-3.982-1.59 0-2.285.884-2.67 1.491h.019V5.868H6.74s.036.83 0 8.846h2.937V9.777c0-.267.026-.526.098-.723.214-.526.696-1.07 1.508-1.07 1.063 0 1.491.812 1.491 1.999v4.73h2.937v-5.07z"/></svg></svg>