<svg width="16" height="17" xmlns="http://www.w3.org/2000/svg" xmlns:xlink="http://www.w3.org/1999/xlink" xmlns:svgjs="http://svgjs.com/svgjs" viewBox="0 0.5 16 16" fill="#fff"><svg xmlns="http://www.w3.org/2000/svg" width="16" height="17" viewBox="2 1.431 14.854 14.854"><path paint-order="stroke fill markers" fill-rule="evenodd" d="M9.82 13.366c0 1.562-1.482 2.098-2.812 2.098-1.429 0-3.357-.661-3.357-2.375 0-1.856 2.178-2.32 3.642-2.32.152 0 .295 0 .447.017.91.634 2.08 1.33 2.08 2.58zM8.747 5.671c0 1.09-.42 1.973-1.642 1.973-1.589 0-2.482-2.124-2.482-3.481 0-1.053.572-2.089 1.741-2.089 1.651 0 2.383 2.24 2.383 3.597zm-1.17-4.24c-.561 0-1.124.063-1.668.179-1.625.357-2.937 1.803-2.937 3.499 0 1.794 1.5 3.07 3.231 3.07.206 0 .41-.017.625-.044-.09.277-.196.473-.196.768 0 .5.276.946.571 1.33-1.598.045-4.08.455-4.874 2.062-.187.375-.33.785-.33 1.205 0 2.07 2.41 2.785 4.08 2.785 1.32 0 2.722-.286 3.748-1.17.76-.66 1.25-1.49 1.25-2.517 0-2.499-2.678-2.954-2.678-4.106 0-1.178 2-1.356 2-3.722 0-1-.447-2.08-1.33-2.634h1.205l1.205-.705H7.579zm9.276 2.286h-2.286V1.43h-1.142v2.286H11.14v1.142h2.285v2.285h1.142V4.86h2.286V3.717z"/></svg></svg>